<svg xmlns="http://www.w3.org/2000/svg" width="14" height="14" viewBox="0 0 14 14">
  <g id="ic_valider_green" transform="translate(0 0)">
    <rect id="Rectangle_972" data-name="Rectangle 972" width="14" height="14" rx="2" transform="translate(0 0)" fill="#354360"/>
    <path id="Icon_ionic-ios-checkmark" data-name="Icon ionic-ios-checkmark" d="M19.387,13.026l-.736-.768a.157.157,0,0,0-.117-.051h0a.151.151,0,0,0-.117.051l-5.1,5.217L11.463,15.59a.16.16,0,0,0-.234,0l-.744.756a.171.171,0,0,0,0,.242l2.341,2.377a.736.736,0,0,0,.489.242.771.771,0,0,0,.485-.233h0l5.588-5.705A.184.184,0,0,0,19.387,13.026Z" transform="translate(-7.435 -8.206)" fill="#ceffea"/>
  </g>
</svg>
